<svg width="300" height="50" xmlns="http://www.w3.org/2000/svg" class="iconLeft">
 <!---->
 <defs>
  <!---->
  <linearGradient y2="0%" x2="100%" y1="0%" x1="0%" id="d222218d-5c99-42e0-9609-8a1ec3469d9f" gradientTransform="rotate(25)">
   <stop stop-color="#E90DCA" offset="0%"/>
   <stop stop-color="#1536F1" offset="100%"/>
  </linearGradient>
 </defs>
 <defs>
  <!---->
 </defs>

 <!---->
 <g>
  <title>Layer 1</title>
  <rect stroke="null" id="svg_1" class="logo-background-square" height="58" width="300" y="-22.00001" x="2" fill="transparent"/>
  <g transform="matrix(2.04641 0 0 2.04641 73.5471 138.916)" fill="#000000" id="3b546b8d-cc42-49ae-aaba-871d0a2d0ab3">
   <path id="svg_2" d="m1.71732,-51.59121l0,0c0.56,0.28 1.09,0.46 1.6,0.58c2.55,0.6 4.8,-0.49 4.8,-3.03c0,-2.53 -3.07,-3.05 -3.7,-3.53c-0.19,-0.15 -0.3,-0.37 -0.3,-0.58c-0.02,-0.48 0.36,-0.73 0.78,-0.79c0.66,-0.07 1.51,0.2 2,0.39c0.2,0.09 0.32,-0.21 0.13,-0.29c-0.81,-0.34 -1.44,-0.46 -2.12,-0.42c-0.64,0.03 -1.14,0.5 -1.12,1.15c0.09,1.27 1.82,1.01 3.2,2.29c1.19,1.1 0.98,2.85 0.02,3.81c-1.24,1.25 -3.51,0.98 -5.12,0.14c-0.2,-0.1 -0.35,0.18 -0.17,0.28zm5.56,-9.27l0,0c-0.66,-0.22 -1.16,-0.33 -1.55,-0.39c-2.26,-0.31 -3.95,1 -3.95,3.17c0,2.6 3.06,2.96 3.72,3.51c0.32,0.29 0.38,0.8 0.04,1.11c-0.7,0.64 -2.5,0.12 -3.38,-0.49c-0.17,-0.12 -0.37,0.14 -0.19,0.26c0.9,0.66 2.03,0.88 2.92,0.83c0.65,-0.04 1.24,-0.51 1.2,-1.16c-0.08,-1.29 -1.79,-1.05 -3.16,-2.24c-1.21,-1.08 -0.98,-2.86 -0.09,-3.83c1.11,-1.2 2.83,-0.99 4.33,-0.47c0.19,0.08 0.31,-0.23 0.11,-0.3zm11,9.79l0,0l0,-10c0,-0.22 -0.33,-0.22 -0.33,0l0,10c0,0.21 0.33,0.21 0.33,0zm-8.16,0l0,0l0,-10c0,-0.22 -0.32,-0.22 -0.32,0l0,10c0,0.21 0.32,0.21 0.32,0zm1.53,-9.91l0,0l4.34,6.23c0.08,0.14 0.31,0.05 0.31,-0.1l0,-6.22c0,-0.22 -0.34,-0.22 -0.34,0l0,5.7l-4.06,-5.79c-0.11,-0.19 -0.38,0.01 -0.25,0.18zm4.8,9.81l0,0l-4.34,-6.23c-0.11,-0.12 -0.31,-0.05 -0.31,0.1l0,6.23c0,0.21 0.34,0.21 0.34,0l0,-5.71l4.03,5.81c0.14,0.17 0.39,-0.02 0.28,-0.2zm6.73,-2.83l0,0l1.47,0c0.1,0 0.17,-0.07 0.17,-0.15c0,-0.03 0,-0.04 -0.01,-0.07l-0.73,-1.79c-0.04,-0.1 -0.13,-0.14 -0.22,-0.1c-0.07,0.03 -0.12,0.13 -0.09,0.21l0.66,1.6l-1.25,0c-0.08,0 -0.16,0.07 -0.16,0.15c0,0.08 0.08,0.15 0.16,0.15zm-1.05,2.83l0,0l0.34,-0.81l2.9,0l0.33,0.81c0.05,0.1 0.13,0.13 0.21,0.1c0.09,-0.03 0.13,-0.14 0.1,-0.21l-0.38,-0.91c-0.01,-0.06 -0.07,-0.1 -0.15,-0.1l-3.11,0c-0.07,0 -0.14,0.03 -0.15,0.1l-0.38,0.91c-0.04,0.07 0,0.18 0.1,0.21c0.08,0.03 0.17,0 0.19,-0.1zm-2.17,0l0,0l3.97,-9.7l3.96,9.7c0.03,0.1 0.12,0.13 0.21,0.1c0.08,-0.03 0.11,-0.14 0.08,-0.21l-4.1,-10.07c-0.06,-0.14 -0.25,-0.15 -0.31,0l-4.1,10.07c-0.04,0.07 0,0.18 0.08,0.21c0.09,0.03 0.19,0 0.21,-0.1zm16.09,-9.76l0,0c-0.64,-0.26 -1.33,-0.4 -2.03,-0.4c-2.49,0 -4.09,1.34 -4.79,3.08c-0.54,1.33 -0.54,2.9 0,4.24c0.7,1.72 2.3,3.07 4.79,3.07c0.7,0 1.39,-0.13 2.03,-0.4c0.08,-0.04 0.13,-0.12 0.08,-0.22c-0.02,-0.07 -0.14,-0.11 -0.21,-0.08c-0.6,0.26 -1.24,0.37 -1.9,0.37c-2.35,0 -3.85,-1.24 -4.51,-2.87c-0.5,-1.26 -0.5,-2.73 0,-4c0.66,-1.6 2.16,-2.87 4.51,-2.87c0.66,0 1.3,0.13 1.9,0.38c0.07,0.03 0.19,0 0.21,-0.09c0.03,-0.08 0,-0.18 -0.08,-0.21zm-0.39,7.24l0,0c-0.55,0.31 -1.01,0.42 -1.64,0.42c-1.34,0 -2.18,-0.73 -2.56,-1.68c-0.3,-0.74 -0.3,-1.62 0,-2.36c0.38,-0.94 1.22,-1.68 2.56,-1.68c0.63,0 1.09,0.11 1.64,0.4c0.08,0.04 0.17,0.02 0.21,-0.05c0.04,-0.09 0.01,-0.19 -0.06,-0.23c-0.6,-0.33 -1.1,-0.45 -1.79,-0.45c-1.48,0 -2.45,0.83 -2.86,1.89c-0.32,0.82 -0.32,1.77 0,2.59c0.41,1.07 1.38,1.88 2.86,1.88c0.69,0 1.19,-0.11 1.79,-0.45c0.07,-0.04 0.1,-0.14 0.06,-0.21c-0.04,-0.08 -0.13,-0.11 -0.21,-0.07zm2.42,2.62l0,0l0,-10.01c0,-0.08 -0.07,-0.15 -0.15,-0.15c-0.1,0 -0.17,0.07 -0.17,0.15l0,10.01c0,0.08 0.07,0.15 0.17,0.15c0.08,0 0.15,-0.07 0.15,-0.15zm4,-10.11l0,0l-2,2.69l0,-2.59c0,-0.08 -0.07,-0.15 -0.15,-0.15c-0.1,0 -0.17,0.07 -0.17,0.15l0,3.07c0,0.05 0.01,0.11 0.07,0.14c0.07,0.05 0.17,0.04 0.22,-0.03l2.3,-3.08c0.06,-0.07 0.04,-0.17 -0.03,-0.23c-0.08,-0.05 -0.18,-0.04 -0.24,0.03zm0.48,10.01l0,0l-2.51,-3.5c-0.05,-0.08 -0.15,-0.1 -0.22,-0.04c-0.04,0.03 -0.07,0.08 -0.07,0.14l0,3.5c0,0.08 0.07,0.15 0.17,0.15c0.08,0 0.15,-0.07 0.15,-0.15l0,-3.01l2.21,3.09c0.06,0.07 0.16,0.1 0.23,0.05c0.07,-0.06 0.08,-0.16 0.04,-0.23zm1.96,-10.01l0,0l-3.49,4.79c-0.04,0.06 -0.04,0.14 0,0.2l0,0l3.7,5.2c0.06,0.07 0.15,0.1 0.22,0.05c0.07,-0.06 0.1,-0.16 0.05,-0.23l-3.63,-5.12l3.42,-4.69c0.05,-0.07 0.04,-0.17 -0.03,-0.23c-0.09,-0.05 -0.18,-0.04 -0.24,0.03zm5.43,9.59l0,0c0.56,0.28 1.09,0.46 1.6,0.58c2.55,0.6 4.8,-0.49 4.8,-3.03c0,-2.53 -3.07,-3.05 -3.7,-3.53c-0.19,-0.15 -0.3,-0.37 -0.3,-0.58c-0.02,-0.48 0.36,-0.73 0.78,-0.79c0.66,-0.07 1.51,0.2 2,0.39c0.2,0.09 0.32,-0.21 0.13,-0.29c-0.81,-0.34 -1.44,-0.46 -2.12,-0.42c-0.64,0.03 -1.14,0.5 -1.12,1.15c0.09,1.27 1.82,1.01 3.2,2.29c1.19,1.1 0.98,2.85 0.02,3.81c-1.24,1.25 -3.51,0.98 -5.12,0.14c-0.2,-0.1 -0.35,0.18 -0.17,0.28zm5.56,-9.27l0,0c-0.66,-0.22 -1.16,-0.33 -1.55,-0.39c-2.26,-0.31 -3.95,1 -3.95,3.17c0,2.6 3.06,2.96 3.72,3.51c0.32,0.29 0.38,0.8 0.04,1.11c-0.7,0.64 -2.5,0.12 -3.38,-0.49c-0.17,-0.12 -0.37,0.14 -0.19,0.26c0.9,0.66 2.03,0.88 2.92,0.83c0.65,-0.04 1.24,-0.51 1.2,-1.16c-0.08,-1.29 -1.79,-1.05 -3.16,-2.24c-1.21,-1.08 -0.98,-2.86 -0.09,-3.83c1.11,-1.2 2.83,-0.99 4.33,-0.47c0.19,0.08 0.31,-0.23 0.11,-0.3zm7.84,9.79l0,0l0,-4c0,-0.1 -0.07,-0.17 -0.17,-0.17l-2.99,0c-0.09,0 -0.17,0.07 -0.17,0.17l0,4c0,0.08 0.08,0.15 0.17,0.15c0.08,0 0.16,-0.07 0.16,-0.15l0,-3.85l2.68,0l0,3.85c0,0.08 0.07,0.15 0.15,0.15c0.1,0 0.17,-0.07 0.17,-0.15zm-3.33,-10.01l0,0l0,4c0,0.09 0.08,0.17 0.17,0.17l2.99,0c0.1,0 0.17,-0.08 0.17,-0.17l0,-4c0,-0.08 -0.07,-0.15 -0.17,-0.15c-0.08,0 -0.15,0.07 -0.15,0.15l0,3.84l-2.68,0l0,-3.84c0,-0.08 -0.08,-0.15 -0.16,-0.15c-0.09,0 -0.17,0.07 -0.17,0.15zm5.01,0l0,0l0,10.01c0,0.08 0.07,0.15 0.15,0.15c0.1,0 0.17,-0.07 0.17,-0.15l0,-10.01c0,-0.08 -0.07,-0.15 -0.17,-0.15c-0.08,0 -0.15,0.07 -0.15,0.15zm-6.68,10.01l0,0l0,-10.01c0,-0.08 -0.07,-0.15 -0.17,-0.15c-0.08,0 -0.15,0.07 -0.15,0.15l0,10.01c0,0.08 0.07,0.15 0.15,0.15c0.1,0 0.17,-0.07 0.17,-0.15zm11.9,-2.93l0,0l1.47,0c0.1,0 0.17,-0.07 0.17,-0.15c0,-0.03 0,-0.04 -0.01,-0.07l-0.73,-1.79c-0.04,-0.1 -0.13,-0.14 -0.23,-0.1c-0.07,0.03 -0.11,0.13 -0.08,0.21l0.66,1.6l-1.25,0c-0.08,0 -0.17,0.07 -0.17,0.15c0,0.08 0.09,0.15 0.17,0.15zm-1.05,2.83l0,0l0.34,-0.81l2.9,0l0.33,0.81c0.04,0.1 0.13,0.13 0.21,0.1c0.09,-0.03 0.13,-0.14 0.1,-0.21l-0.38,-0.91c-0.01,-0.06 -0.07,-0.1 -0.15,-0.1l-3.11,0c-0.07,0 -0.14,0.03 -0.15,0.1l-0.38,0.91c-0.04,0.07 0,0.18 0.1,0.21c0.08,0.03 0.16,0 0.19,-0.1zm-2.17,0l0,0l3.96,-9.7l3.97,9.7c0.02,0.1 0.12,0.13 0.21,0.1c0.08,-0.03 0.11,-0.14 0.08,-0.21l-4.1,-10.07c-0.06,-0.14 -0.25,-0.15 -0.31,0l-4.1,10.07c-0.04,0.07 0,0.18 0.08,0.21c0.09,0.03 0.18,0 0.21,-0.1zm16.09,-9.76l0,0c-0.65,-0.26 -1.33,-0.4 -2.03,-0.4c-2.49,0 -4.09,1.34 -4.79,3.08c-0.55,1.33 -0.55,2.9 0,4.24c0.7,1.72 2.3,3.07 4.79,3.07c0.7,0 1.38,-0.13 2.03,-0.4c0.08,-0.04 0.12,-0.12 0.08,-0.22c-0.03,-0.07 -0.14,-0.11 -0.21,-0.08c-0.6,0.26 -1.24,0.37 -1.9,0.37c-2.35,0 -3.85,-1.24 -4.51,-2.87c-0.5,-1.26 -0.5,-2.73 0,-4c0.66,-1.6 2.16,-2.87 4.51,-2.87c0.66,0 1.3,0.13 1.9,0.38c0.07,0.03 0.18,0 0.21,-0.09c0.03,-0.08 0,-0.18 -0.08,-0.21zm-0.39,7.24l0,0c-0.55,0.31 -1.01,0.42 -1.64,0.42c-1.35,0 -2.19,-0.73 -2.56,-1.68c-0.3,-0.74 -0.3,-1.62 0,-2.36c0.37,-0.94 1.21,-1.68 2.56,-1.68c0.63,0 1.09,0.11 1.64,0.4c0.08,0.04 0.16,0.02 0.21,-0.05c0.04,-0.09 0.01,-0.19 -0.06,-0.23c-0.6,-0.33 -1.11,-0.45 -1.79,-0.45c-1.49,0 -2.45,0.83 -2.86,1.89c-0.32,0.82 -0.32,1.77 0,2.59c0.41,1.07 1.37,1.88 2.86,1.88c0.68,0 1.19,-0.11 1.79,-0.45c0.07,-0.04 0.1,-0.14 0.06,-0.21c-0.05,-0.08 -0.13,-0.11 -0.21,-0.07zm2.42,2.62l0,0l0,-10.01c0,-0.08 -0.07,-0.15 -0.16,-0.15c-0.09,0 -0.16,0.07 -0.16,0.15l0,10.01c0,0.08 0.07,0.15 0.16,0.15c0.09,0 0.16,-0.07 0.16,-0.15zm4,-10.11l0,0l-2,2.69l0,-2.59c0,-0.08 -0.07,-0.15 -0.15,-0.15c-0.1,0 -0.17,0.07 -0.17,0.15l0,3.07c0,0.05 0.01,0.11 0.07,0.14c0.07,0.05 0.17,0.04 0.22,-0.03l2.3,-3.08c0.05,-0.07 0.04,-0.17 -0.03,-0.23c-0.08,-0.05 -0.18,-0.04 -0.24,0.03zm0.48,10.01l0,0l-2.51,-3.5c-0.05,-0.08 -0.15,-0.1 -0.22,-0.04c-0.04,0.03 -0.07,0.08 -0.07,0.14l0,3.5c0,0.08 0.07,0.15 0.17,0.15c0.08,0 0.15,-0.07 0.15,-0.15l0,-3.01l2.21,3.09c0.06,0.07 0.16,0.1 0.23,0.05c0.07,-0.06 0.08,-0.16 0.04,-0.23zm1.96,-10.01l0,0l-3.49,4.79c-0.04,0.06 -0.04,0.14 0,0.2l0,0l3.7,5.2c0.05,0.07 0.15,0.1 0.22,0.05c0.07,-0.06 0.1,-0.16 0.04,-0.23l-3.62,-5.12l3.41,-4.69c0.06,-0.07 0.05,-0.17 -0.02,-0.23c-0.09,-0.05 -0.19,-0.04 -0.24,0.03z"/>
  </g>
  <g transform="matrix(1.35573 0 0 1.35573 38.7202 132.391)" fill="url(#d222218d-5c99-42e0-9609-8a1ec3469d9f)" id="35862216-e705-4adc-a4ad-15841a1df522">
   <g id="svg_3">
    <path id="svg_4" d="m16.57022,-88.7648c0,3.21 -2.564,5.473 -6.075,5.473c-3.51,0 -6.075,-2.263 -6.075,-5.473c0,-0.905 0.111,-1.103 0.325,-1.15c0.355,-0.08 0.663,-0.03 2.45,0.362c1.343,0.295 2.27,0.433 3.3,0.433c1.03,0 1.957,-0.138 3.3,-0.433c1.786,-0.392 2.095,-0.441 2.45,-0.362c0.214,0.047 0.325,0.245 0.325,1.15zm2,0c0,-1.742 -0.604,-2.817 -1.892,-3.103c-0.79,-0.175 -1.059,-0.132 -3.31,0.362c-1.215,0.266 -2.02,0.386 -2.873,0.386c-0.852,0 -1.658,-0.12 -2.872,-0.386c-2.252,-0.494 -2.52,-0.537 -3.31,-0.362c-1.29,0.286 -1.894,1.36 -1.894,3.103c0,4.374 3.511,7.473 8.075,7.473c4.563,0 8.075,-3.099 8.075,-7.473l0.001,0z"/>
    <path id="svg_5" d="m10.49522,-83.2918c-2.611,0 -4.77,-1.285 -5.644,-3.322l-0.574,-1.339l-1.043,1.018c-0.57,0.556 -0.814,1.383 -0.814,2.523c0,4.375 3.511,7.473 8.075,7.473c4.564,0 8.075,-3.098 8.075,-7.473c0,-1.14 -0.244,-1.967 -0.814,-2.523l-1.043,-1.018l-0.574,1.34c-0.874,2.036 -3.033,3.32 -5.644,3.32l0,0.001zm0,4.353c-3.23,0 -5.66,-1.916 -6.027,-4.723c1.48,1.503 3.634,2.37 6.027,2.37c2.393,0 4.546,-0.867 6.027,-2.37c-0.368,2.807 -2.797,4.723 -6.027,4.723z"/>
    <path id="svg_6" d="m16.06122,-82.0858c-0.92,1.937 -3.035,3.147 -5.566,3.147c-2.532,0 -4.646,-1.21 -5.566,-3.146l-0.533,-1.124l-0.983,0.761c-0.696,0.54 -0.993,1.426 -0.993,2.682c0,4.375 3.51,7.473 8.075,7.473c4.564,0 8.075,-3.098 8.075,-7.473c0,-1.256 -0.296,-2.141 -0.993,-2.682l-0.982,-0.761l-0.534,1.122l0,0.001zm-5.566,7.794c-3.355,0 -5.845,-2.065 -6.06,-5.05c1.483,1.525 3.653,2.403 6.06,2.403c2.407,0 4.577,-0.878 6.06,-2.404c-0.215,2.985 -2.705,5.05 -6.06,5.05l0,0.001z"/>
    <path id="svg_7" d="m10.49522,-74.2918c-2.611,0 -4.77,-1.285 -5.644,-3.322l-0.574,-1.339l-1.043,1.018c-0.57,0.556 -0.814,1.383 -0.814,2.523c0,4.375 3.511,7.473 8.075,7.473c4.564,0 8.075,-3.098 8.075,-7.473c0,-1.14 -0.244,-1.967 -0.814,-2.523l-1.043,-1.018l-0.574,1.34c-0.874,2.036 -3.033,3.32 -5.644,3.32l0,0.001zm0,4.353c-3.23,0 -5.66,-1.916 -6.027,-4.723c1.48,1.503 3.634,2.37 6.027,2.37c2.393,0 4.546,-0.867 6.027,-2.37c-0.368,2.807 -2.797,4.723 -6.027,4.723z"/>
   </g>
  </g>
 </g>
</svg>